# xmcd
# Copyright (C) 1995-1998 Ti Kan
#
# Track frame offsets:
#       150
#       14599
#       32156
#       45469
#       62570
#       77662
#       98330
#       116084
#       132706
#       148439
#       161411
#
# Disc length: 2475 seconds
#
# Revision: 0
# Processed by: cddbd v1.5.2PL0 Copyright (c) Steve Scherf et al.
# Submitted via: CD-Import v1.0
#
DISCID=9409a90b
DTITLE=Kettcar - Von Spatzen Und Tauben, Dächern Und Händen
DYEAR=1900
DGENRE=
TTITLE0=Deiche
TTITLE1=Die Ausfahrt Zum Hause Deiner Eltern
TTITLE2=48 Stunden
TTITLE3=Einer
TTITLE4=Tränengas In High-End-Leben
TTITLE5=Balu
TTITLE6=Stockhausen, Bill Gates Und Ich
TTITLE7=Anders Als Gedacht
TTITLE8=Die Wahrheit Ist Man Hat Uns Nichts Gratis Getan
TTITLE9=Handyfeuerzeug Gratis Dazu
TTITLE10=Nacht
EXTD=
EXTT0=
EXTT1=
EXTT2=
EXTT3=
EXTT4=
EXTT5=
EXTT6=
EXTT7=
EXTT8=
EXTT9=
EXTT10=
PLAYORDER=
